<svg xmlns="http://www.w3.org/2000/svg" viewBox="0 0 51.97 51.97"><defs><style>.cls-1{fill:#fff;}</style></defs><title>delete</title><g id="Layer_2" data-name="Layer 2"><g id="Capa_1" data-name="Capa 1"><path d="M44.37,7.6a26,26,0,1,0,0,36.77A26,26,0,0,0,44.37,7.6ZM36.24,36.24a2,2,0,0,1-2.83,0L26,28.82l-7.78,7.77a2,2,0,1,1-2.83-2.82L23.16,26l-7.42-7.43a2,2,0,1,1,2.82-2.82L26,23.16l7.07-7.07a2,2,0,0,1,2.83,2.83L28.82,26l7.42,7.42A2,2,0,0,1,36.24,36.24Z"/><path class="cls-1" d="M36.24,36.24a2,2,0,0,1-2.83,0L26,28.82l-7.78,7.77a2,2,0,1,1-2.83-2.82L23.16,26l-7.42-7.43a2,2,0,1,1,2.82-2.82L26,23.16l7.07-7.07a2,2,0,0,1,2.83,2.83L28.82,26l7.42,7.42A2,2,0,0,1,36.24,36.24Z"/></g></g></svg>