<svg xmlns="http://www.w3.org/2000/svg" viewBox="0 0 51.98 51.97"><defs><style>.cls-1{fill:#fff;}</style></defs><title>direct</title><g id="Layer_2" data-name="Layer 2"><g id="Capa_1" data-name="Capa 1"><ellipse cx="25.99" cy="25.98" rx="26" ry="26"/><path class="cls-1" d="M19,36.8l0,0L32.14,23.68V32A1.51,1.51,0,0,0,32.6,33a1.49,1.49,0,0,0,1.07.45H35A1.51,1.51,0,0,0,36,33,1.47,1.47,0,0,0,36.48,32V17.79A1.49,1.49,0,0,0,36,16.72,1.51,1.51,0,0,0,35,16.27H20.78a1.54,1.54,0,0,0-1.07.44,1.5,1.5,0,0,0-.44,1.08v1.28a1.49,1.49,0,0,0,1.5,1.51l8.35,0L15.94,33.74a1.57,1.57,0,0,0,0,2.19l.91.91A1.55,1.55,0,0,0,19,36.8Z"/></g></g></svg>