<svg xmlns="http://www.w3.org/2000/svg" id="Layer" enable-background="new 0 0 64 64" viewBox="0 0 64 64"><path d="m50.414 35.586c-.781-.781-2.047-.781-2.828 0s-.781 2.047 0 2.828l1.586 1.586h-5.327c-1.833 0-3.54-.821-4.686-2.252l-4.598-5.748 4.598-5.748c1.146-1.431 2.853-2.252 4.686-2.252h5.327l-1.586 1.586c-.781.781-.781 2.047 0 2.828.391.391.902.586 1.414.586s1.023-.195 1.414-.586l5-5c.781-.781.781-2.047 0-2.828l-5-5c-.781-.781-2.047-.781-2.828 0s-.781 2.047 0 2.828l1.586 1.586h-5.327c-3.055 0-5.9 1.368-7.809 3.753l-4.036 5.045-4.036-5.046c-1.908-2.384-4.754-3.752-7.809-3.752h-10.155c-1.104 0-2 .896-2 2s.896 2 2 2h10.155c1.833 0 3.54.821 4.686 2.252l4.598 5.748-4.598 5.748c-1.146 1.431-2.853 2.252-4.686 2.252h-10.155c-1.104 0-2 .896-2 2s.896 2 2 2h10.155c3.055 0 5.9-1.368 7.809-3.753l4.036-5.045 4.036 5.046c1.908 2.384 4.754 3.752 7.809 3.752h5.327l-1.586 1.586c-.781.781-.781 2.047 0 2.828.391.391.902.586 1.414.586s1.023-.195 1.414-.586l5-5c.781-.781.781-2.047 0-2.828z"/></svg>